<?xml version="1.0" encoding="UTF-8" standalone="no"?>
<!DOCTYPE svg PUBLIC "-//W3C//DTD SVG 1.1//EN" "http://www.w3.org/Graphics/SVG/1.1/DTD/svg11.dtd">
<svg width="100%" height="100%" viewBox="0 0 1489 415" version="1.1" xmlns="http://www.w3.org/2000/svg" xmlns:xlink="http://www.w3.org/1999/xlink" xml:space="preserve" xmlns:serif="http://www.serif.com/" style="fill-rule:evenodd;clip-rule:evenodd;stroke-linejoin:round;stroke-miterlimit:2;">
    <rect id="Artboard2" x="0" y="0" width="1488.69" height="414.553" style="fill:none;"/>
    <g id="Artboard21" serif:id="Artboard2">
        <path d="M598.531,311.49C581.816,311.49 568.47,306.338 558.496,296.036C548.521,285.734 543.533,271.579 543.533,253.573L543.533,160.573C543.533,142.567 548.521,128.413 558.496,118.11C568.47,107.808 581.816,102.657 598.531,102.657C615.355,102.657 628.728,107.808 638.648,118.11C648.569,128.413 653.53,142.529 653.53,160.46L653.53,253.573C653.53,271.579 648.569,285.734 638.648,296.036C628.728,306.338 615.355,311.49 598.531,311.49ZM598.531,295.118C610.342,295.118 619.463,291.591 625.894,284.537C632.326,277.483 635.542,267.533 635.542,254.687L635.542,159.459C635.542,146.613 632.299,136.663 625.813,129.609C619.328,122.555 610.234,119.028 598.531,119.028C586.903,119.028 577.828,122.555 571.305,129.609C564.782,136.663 561.521,146.613 561.521,159.459L561.521,254.687C561.521,267.533 564.755,277.483 571.224,284.537C577.693,291.591 586.795,295.118 598.531,295.118Z" style="fill:white;fill-rule:nonzero;"/>
        <path d="M746.577,308.705L746.577,105.441L804.628,105.441C816.439,105.441 826.686,107.789 835.37,112.485C844.055,117.181 850.768,123.808 855.511,132.365C860.253,140.923 862.624,150.994 862.624,162.579C862.624,176.872 858.818,188.938 851.205,198.776C843.593,208.615 833.299,214.926 820.325,217.711L864.532,308.705L843.93,308.705L801.358,219.046L764.454,219.046L764.454,308.705L746.577,308.705ZM764.454,202.505L804.628,202.505C816.657,202.505 826.278,198.821 833.49,191.452C840.703,184.083 844.309,174.347 844.309,162.244C844.309,149.954 840.703,140.199 833.49,132.979C826.278,125.758 816.657,122.148 804.628,122.148L764.454,122.148L764.454,202.505Z" style="fill:white;fill-rule:nonzero;"/>
        <path d="M948.258,308.705L948.258,105.441L1001.57,105.441C1013.09,105.441 1023,107.557 1031.3,111.789C1039.6,116.021 1046.04,122.081 1050.62,129.97C1055.2,137.86 1057.49,147.17 1057.49,157.902C1057.49,164.77 1056.04,171.322 1053.13,177.558C1050.22,183.794 1046.19,189.047 1041.03,193.316C1035.87,197.586 1030,200.408 1023.42,201.783L1023.42,202.618C1030.91,203.656 1037.55,206.58 1043.35,211.389C1049.14,216.198 1053.72,222.176 1057.08,229.323C1060.44,236.469 1062.12,244.256 1062.12,252.681C1062.12,264.08 1059.76,273.993 1055.04,282.42C1050.32,290.848 1043.59,297.335 1034.87,301.883C1026.15,306.431 1015.76,308.705 1003.69,308.705L948.258,308.705ZM966.028,291.999L1002.6,291.999C1015.57,291.999 1025.79,288.472 1033.24,281.418C1040.68,274.364 1044.41,264.73 1044.41,252.516C1044.41,240.151 1040.68,230.266 1033.24,222.86C1025.79,215.453 1015.57,211.75 1002.6,211.75L966.028,211.75L966.028,291.999ZM966.028,195.544L1001.46,195.544C1013.41,195.544 1022.76,192.277 1029.5,185.744C1036.24,179.211 1039.62,170.245 1039.62,158.846C1039.62,147.45 1036.24,138.485 1029.47,131.95C1022.72,125.415 1013.41,122.148 1001.57,122.148L966.028,122.148L966.028,195.544Z" style="fill:white;fill-rule:nonzero;"/>
        <path d="M1152.88,308.705L1152.88,291.885L1194.64,291.885L1194.64,122.261L1152.88,122.261L1152.88,105.441L1254.27,105.441L1254.27,122.261L1212.84,122.261L1212.84,291.885L1254.27,291.885L1254.27,308.705L1152.88,308.705Z" style="fill:white;fill-rule:nonzero;"/>
        <path d="M1396.42,308.705L1396.42,122.091L1339.3,122.091L1339.3,105.441L1471.21,105.441L1471.21,122.091L1414.41,122.091L1414.41,308.705L1396.42,308.705Z" style="fill:white;fill-rule:nonzero;"/>
        <g>
            <path d="M396.184,183.692L234.498,22.006C221.881,9.766 201.541,9.766 188.925,22.006L27.238,183.692C14.746,196.196 14.746,216.761 27.238,229.265L188.925,390.951C201.429,403.443 221.994,403.443 234.498,390.951L396.184,229.265C408.676,216.761 408.676,196.196 396.184,183.692ZM388.184,221.265L226.498,382.952C222.586,386.888 217.26,389.104 211.711,389.104C206.162,389.104 200.836,386.888 196.924,382.952L35.238,221.265C31.302,217.354 29.086,212.028 29.086,206.478C29.086,200.929 31.302,195.603 35.238,191.692L196.924,30.005C200.803,26.008 206.141,23.75 211.711,23.75C217.281,23.75 222.619,26.008 226.498,30.005L388.184,191.692C392.121,195.603 394.336,200.929 394.336,206.478C394.336,212.028 392.121,217.354 388.184,221.265Z" style="fill:white;fill-rule:nonzero;"/>
            <path d="M260.193,116.06C252.466,110.04 243.402,105.966 233.77,104.182C228.9,103.188 223.952,102.62 218.983,102.485L183.834,102.485C171.334,102.485 161.048,112.771 161.048,125.272L161.048,144.664C133.882,152.745 115.125,177.894 115.125,206.236C115.125,234.578 133.882,259.727 161.048,267.808L161.048,287.2C161.048,299.701 171.334,309.987 183.834,309.987L217.771,309.987C222.725,309.805 227.664,309.319 232.558,308.532C242.625,306.681 252.103,302.441 260.193,296.17C275.589,283.783 284.522,265.024 284.434,245.264C284.086,231.227 279.146,217.684 270.374,206.721C279.484,195.385 284.447,181.266 284.434,166.724C284.519,147.032 275.579,128.349 260.193,116.06ZM260.193,209.872C268.936,219.582 273.775,232.198 273.768,245.264C274.191,270.357 256.262,292.305 231.589,296.897C227.265,297.688 222.891,298.174 218.499,298.351L183.834,298.351C177.584,298.351 172.441,293.208 172.441,286.958L172.441,269.989C175.025,270.12 177.614,270.12 180.198,269.989L225.044,269.989C229.059,269.419 232.838,267.74 235.952,265.141C242.189,260.466 245.803,253.058 245.648,245.264C245.614,237.512 242.04,230.185 235.952,225.386C232.941,223.166 229.456,221.672 225.771,221.023L183.834,221.023C171.334,221.023 161.048,231.309 161.048,243.809L161.048,255.203C140.393,247.44 126.637,227.574 126.637,205.509C126.637,183.444 140.393,163.578 161.048,155.815L161.048,168.905C161.048,181.405 171.334,191.692 183.834,191.692L209.772,191.692C214.853,192.139 219.963,192.139 225.044,191.692C229.07,191.003 232.838,189.245 235.952,186.601C242.442,182.071 246.318,174.638 246.318,166.724C246.318,158.809 242.442,151.376 235.952,146.846C232.904,144.639 229.441,143.073 225.771,142.24C222.784,142.059 219.789,142.059 216.802,142.24L180.198,142.24C177.614,142.109 175.025,142.109 172.441,142.24L172.441,125.272C172.38,122.292 173.516,119.409 175.592,117.272C177.779,115.093 180.747,113.871 183.834,113.879L217.287,113.879C221.645,113.584 226.018,113.584 230.377,113.879C238.333,115.416 245.811,118.823 252.193,123.817C265.037,133.826 272.559,149.229 272.556,165.511C273.145,178.897 268.737,192.036 260.193,202.358L255.345,206.721L260.193,209.872ZM181.41,258.354C178.831,258.605 176.233,258.605 173.653,258.354L173.653,242.597C173.494,236.689 177.957,231.588 183.834,230.962L215.59,230.962C218.004,230.66 220.447,230.66 222.862,230.962C224.819,231.132 226.68,231.893 228.195,233.143C231.53,235.783 233.493,239.799 233.528,244.052C233.605,248.33 231.618,252.394 228.195,254.96C226.642,256.192 224.811,257.024 222.862,257.384C220.441,257.566 218.01,257.566 215.59,257.384L180.198,257.384L181.41,258.354ZM172.441,153.391C175.021,153.141 177.618,153.141 180.198,153.391L222.862,153.391C224.811,153.751 226.642,154.583 228.195,155.815C231.588,158.407 233.566,162.454 233.528,166.724C233.605,171.002 231.618,175.065 228.195,177.632C226.642,178.864 224.811,179.696 222.862,180.056C218.587,180.42 214.289,180.42 210.014,180.056L183.834,180.056C177.584,180.056 172.441,174.913 172.441,168.663L172.441,153.391Z" style="fill:white;fill-rule:nonzero;"/>
        </g>
    </g>
</svg>
